<?xml version="1.0" encoding="UTF-8"?>
<!DOCTYPE svg PUBLIC "-//W3C//DTD SVG 1.1//EN" "http://www.w3.org/Graphics/SVG/1.1/DTD/svg11.dtd">
<!-- Creator: CorelDRAW 2018 (64-Bit) -->
<svg xmlns="http://www.w3.org/2000/svg" xml:space="preserve" width="210mm" height="297mm" version="1.1" style="shape-rendering:geometricPrecision; text-rendering:geometricPrecision; image-rendering:optimizeQuality; fill-rule:evenodd; clip-rule:evenodd"
viewBox="0 0 21000 29700"
 xmlns:xlink="http://www.w3.org/1999/xlink">
 <defs>
  <style type="text/css">
   <![CDATA[
    .fil0 {fill:#FDFDFD}
   ]]>
  </style>
 </defs>
 <g id="Слой_x0020_1">
  <metadata id="CorelCorpID_0Corel-Layer"/>
  <g id="_919918336">
   <path class="fil0" d="M5519.11 14872.66l0 -1042.54 1624.01 0c255.74,0 453.63,241.92 453.63,435.15l0 1196.66 -1660.3 0c-71.63,0 -134.81,-33.23 -184.45,-60.47 -53.94,-29.61 -96.81,-75.2 -131.9,-122.04 -84.5,-112.81 -100.99,-215 -100.99,-406.76zm-399.2 -1405.16l0 1504.89c0,308.56 196.18,616.12 480.86,743.37 94.49,42.24 216.15,63.79 353.82,63.47 550.35,-1.25 1100.86,-0.01 1651.23,-0.01 12.91,48.31 82.52,90.44 115.27,129.6 23.08,27.58 28.41,37.02 54.8,63.09l117.81 127.06c89.36,92.77 129.22,151.66 238.34,151.66 154.82,0 261.82,-218.29 106.64,-369.46l-113.45 -122.34c-43.33,-43.14 -69.51,-80.22 -113.69,-122.11 -51.3,-48.65 -33.74,-67.83 -33.74,-201.99 0,-219.77 19.96,-1202.5 -23.52,-1372.6 -92.25,-360.93 -365.44,-621.83 -793.02,-621.83l-2014.13 0 -0.97 0c-20.13,0.2 -26.25,6.64 -26.25,27.2z"/>
   <path class="fil0" d="M14746.01 13603.48l0 2502.1c0,139.75 268.9,200.24 407.12,107.64 19.18,-12.84 39.33,-35.57 52,-56.83 14.77,-24.78 21.73,-59.68 21.73,-96.13l0 -1015.35c298.95,0 278.96,-30.97 460.03,120.53l351.27 328.92c37.45,28.9 56.87,50.67 89.09,83.23l263 244.87c19.87,19.64 24.46,20.93 44.63,37l218.48 207.77c19.87,19.65 24.46,20.93 44.63,37.01 67.78,54.03 113.75,155.46 279.9,155.46 93.45,0 235.89,-59.89 235.89,-145.05 0,-118.5 -26.95,-111.93 -138.26,-215.41l-823.45 -736.48c-25.32,-19.31 -306.25,-268.78 -326.61,-299.16l233.62 -228.91c32.09,-32.12 46.34,-43.78 81.25,-72.93l630.95 -611.52c27.92,-27.89 49.28,-49.09 77.11,-77.07 13.58,-13.64 22.24,-23.75 36.37,-36.18 100.18,-88.15 273.89,-207.53 103.76,-334.99 -67.3,-50.43 -125.53,-43.57 -210.43,-43.57 -136.36,0 -256.32,160.93 -378.79,283.3l-534.87 535.28c-74.71,89.61 -76.4,63.96 -125.87,128.07 -47.82,61.97 -48.66,44.2 -119.58,125.28 -12.31,14.07 -26.76,28.19 -40.63,40.99 -165.19,152.42 -213.99,120 -451.49,120l0 -1042.54c0,-272.05 -480.85,-226.85 -480.85,-45.33z"/>
   <path class="fil0" d="M10264.11 15307.81l0 -870.29c0,-297.35 184.05,-598.33 444.57,-598.33 283.91,0 522.71,-47.08 684.48,168.21 59.63,79.37 132.06,215.86 132.06,348.53l0 1015.34c0,133.21 -76.85,264.75 -140.76,339.83l-62.55 55.35c-159.19,114.86 -369.04,85.3 -586.02,85.3 -289,0 -471.78,-256.18 -471.78,-543.94zm-426.41 -906.56l0 951.89c0,274.19 141.23,555.91 360.22,718.87 291.01,216.55 574.22,169.56 928.1,169.56 293.41,0 510.18,-174.18 670.09,-391.1 36.2,-49.1 51.61,-79.13 76.5,-141.14 39.03,-97.27 79.02,-224.94 79.02,-356.19l0 -970.02c0,-168.89 -71.83,-391.87 -159.5,-520.54 -59.4,-87.19 -57.24,-87.74 -125.43,-155.7 -297.72,-296.72 -525.36,-257.51 -939.88,-257.51 -205.14,0 -450.67,89.32 -573.13,225.08l-59.93 57.98c-151.94,153.54 -256.06,435.56 -256.06,668.82z"/>
   <path class="fil0" d="M12387.12 14201.81c0,228.27 19.42,395.18 183.62,559.9 46.76,46.91 130.9,99.96 194.2,132.31 349.96,178.84 787.1,99.14 986.07,274.82l23.58 21.76c123.24,118.54 122.54,313.82 51.59,440.09 -102.89,183.13 -364.92,202.95 -559.01,202.93 -169.36,-0.02 -338.72,0 -508.07,0 -98.02,-0.01 -159.96,-10.43 -219.44,34.57 -173.04,130.92 -68.31,373.38 92.42,373.38l780.25 0c211,0 352.81,-44.59 519.03,-125.04l100.08 -63.17c57.65,-47.52 41.3,-27.85 88.65,-83.67 2.81,-3.32 6.21,-7.07 12.56,-14.64 23.41,-27.95 21.32,-28.74 39.02,-60.73 110.19,-199.14 111.64,-296.38 111.64,-532.11 0,-378.78 -280.96,-595.66 -613.73,-692.21 -340.58,-98.81 -883.26,-34.24 -883.26,-422.86 0,-368.15 318.53,-380.76 607.86,-380.76 166.34,0 332.67,0 499,0 99.31,0.01 148.51,11.9 212.78,-32.16 91.71,-62.87 107.95,-184.99 67.51,-266.04 -12.4,-24.85 -21.58,-38.54 -40.6,-59.15 -33.54,-36.32 -86.9,-59.66 -139.89,-59.66l-725.81 0c-214.82,0 -474.76,58.16 -623.72,192.67 -82.07,74.1 -126.17,106.79 -183.97,224.12 -37.21,75.54 -72.36,222.18 -72.36,335.65z"/>
   <path class="fil0" d="M8730.83 15996.8c0,121.18 125.7,253.83 272.18,253.83l127.02 0 0 -2493.03c0,-191.05 -126.35,-317.3 -317.54,-317.3l-81.66 0 0 2556.5z"/>
   <path class="fil0" d="M3786.23 13440.3l0 2402.38 0 126.35c2.36,81.4 15.81,129.81 79.21,193.39 96.53,96.82 139.16,88.21 319.99,88.21l0 -2402.38c0,-161.29 1.63,-230.37 -83.82,-315.14 -90.67,-89.95 -155.13,-92.72 -301.01,-92.81l-7.12 0 -7.25 0z"/>
  </g>
 </g>
</svg>
