<?xml version="1.0" encoding="UTF-8"?>
<!DOCTYPE svg PUBLIC "-//W3C//DTD SVG 1.1//EN" "http://www.w3.org/Graphics/SVG/1.1/DTD/svg11.dtd">
<!-- Creator: CorelDRAW 2018 (64-Bit) -->
<svg xmlns="http://www.w3.org/2000/svg" xml:space="preserve" width="210mm" height="297mm" version="1.1" style="shape-rendering:geometricPrecision; text-rendering:geometricPrecision; image-rendering:optimizeQuality; fill-rule:evenodd; clip-rule:evenodd"
viewBox="0 0 21000 29700"
 xmlns:xlink="http://www.w3.org/1999/xlink">
 <defs>
  <style type="text/css">
   <![CDATA[
    .fil0 {fill:#FDFDFD}
   ]]>
  </style>
 </defs>
 <g id="Слой_x0020_1">
  <metadata id="CorelCorpID_0Corel-Layer"/>
  <g id="_923995600">
   <path class="fil0" d="M7289.68 14731.23l0 -1187.7 1732.55 0c56.25,0 142.1,30.43 178.21,51.04 150.17,85.75 263.42,250.66 263.42,432.52l0 1204.67c0,19.55 -5.91,25.45 -25.48,25.45l-1579.68 0c-253.01,0 -412.28,-69.62 -521.05,-293.95 -30.1,-62.08 -47.97,-143.27 -47.97,-232.03zm-390.68 25.45c0,259.09 172.65,566.6 396.47,689.87 142.38,78.41 218.77,107.6 435.84,107.59l1630.67 -0.03c62.34,-0.33 78.86,-11.14 113.14,22.72l262.58 280.66c52.6,59.67 150.47,188.7 227.25,188.7 71.17,0 116.22,-0.46 167.58,-61.66 116.05,-138.28 25.48,-259.96 -72,-356.2 -35.63,-35.17 -215.88,-217.91 -222.26,-253.06 -4.18,-23.03 -0.72,-90.49 -0.72,-118.06 0.02,-203.16 14.14,-1251.09 -13.29,-1403.48 -44.16,-245.28 -172.7,-444.8 -373.83,-576.75 -80.92,-53.08 -230.78,-115.22 -360.26,-115.22l-2191.17 0 0 1594.92z"/>
   <path class="fil0" d="M17540.63 13322.95l0 2579.02c0,81.01 124.63,152.7 212.33,152.7l50.95 0c91.98,0 220.82,-68.98 220.82,-152.7l0 -1094.39 288.76 0c73.63,0 239.39,149.5 299.5,209.85l622.64 582.71c61.76,47.63 369.09,357.36 444.91,412.43 118.75,86.24 392.12,38.85 405.93,-112.2 8.84,-96.62 -135.88,-182.86 -208.32,-254.87l-195.07 -178.42c-21.55,-21.84 -28.45,-24.12 -50.68,-42.7 -18.81,-15.7 -29.22,-29.94 -46.99,-46.38l-687.93 -619.3c-20.64,-19.11 -30.28,-21.94 -51.23,-42.15 -17.96,-17.33 -28.39,-30.89 -47.41,-45.96 -26.01,-20.61 -32.98,-20.96 -52.21,-49.65l320.67 -315.95c18.11,-15.93 24.19,-16.97 42.51,-33.89l203.68 -203.75c30.89,-31.22 54.71,-45.59 85.04,-76.24 54.07,-54.63 102.62,-102.66 157.05,-157.02l326.85 -318.26c30.85,-30.97 146.63,-115.91 146.63,-175.91 0,-158.94 -252.63,-205.33 -388.15,-141.7 -72.85,34.21 -560.82,542.44 -628.88,610.42 -119.51,119.38 -232.29,233.35 -352.49,352.03 -107.69,106.32 -237.09,290.6 -422.49,290.6l-212.32 0 0 -1128.32c0,-196.99 -484.1,-200.07 -484.1,0z"/>
   <path class="fil0" d="M12419.4 15045.12l0 -848.36c0,-325.92 181.15,-644.75 492.59,-644.75 346.47,0 513.01,-49.94 704.95,203.57 82.4,108.83 127.36,242.01 127.36,432.7l0 873.81c0,258.38 -125.37,478.66 -329.98,552.68 -127.2,46.02 -537.74,46.02 -664.94,0 -228.61,-82.7 -329.98,-322.65 -329.98,-569.65zm-433.14 -848.36l0 873.81c0,282.22 105.36,535.58 248.41,676.58 93.64,92.31 117.61,134.51 255.49,202.91 104.56,51.87 219.85,96.13 370.87,96.13 276,0 554.39,32.66 801.27,-90.4 54.47,-27.15 94.74,-54.87 140.33,-88.88 26.32,-19.63 35.83,-32.16 59.32,-51.02 201.8,-162.03 306.99,-456.29 306.99,-719.87l0 -933.19c0,-395.55 -195.29,-763.04 -554.82,-930.42 -238.96,-111.25 -831.65,-111.99 -1070.27,2.76 -349.49,168.08 -557.59,526.42 -557.59,961.59z"/>
   <path class="fil0" d="M14873.86 13967.71c0,111.7 16.83,216.38 44.36,303.5 37.77,119.52 123.01,227.23 222.29,295.46 369.65,254.02 629.72,178.88 952.85,269.83 466.97,131.44 361.71,594.03 139.58,709.37 -141.96,73.72 -238.93,76.14 -450.34,76.14 -175.52,0 -351.04,0.1 -526.56,0 -149.84,-0.09 -305.75,20.86 -305.75,220.57 0,100.94 77.18,203.61 178.35,203.61l789.84 0c283.01,0 640.37,-100.25 793.37,-335.83 94.07,-144.84 114.69,-268.92 123.87,-444.69 4.61,-88.38 9.35,-9.62 0.53,-119.22 -22.29,-277.02 -107.6,-480.05 -377.01,-624.53 -534.03,-286.4 -1169.23,-35.95 -1169.23,-571.18 0,-157.38 85.82,-265.37 195.27,-313.96 128.72,-57.14 274.33,-50.84 458.68,-50.84 169.86,0 339.72,-0.04 509.58,0 106.17,0.03 149.88,2.88 212.71,-42.03 154.98,-110.77 82.15,-390.63 -144.77,-390.63l-704.91 0c-267.58,0 -470.12,58.51 -668.54,206.01 -160.7,119.46 -274.17,331.72 -274.17,608.42z"/>
   <path class="fil0" d="M10882.18 15723.81c0,89.74 25.75,171.71 69.82,218.71 113.25,120.77 179.46,103.67 329.35,103.67l0 -2604.47c0,-145.52 -126.76,-279.96 -271.77,-279.96l-127.4 0 0 2562.05z"/>
   <path class="fil0" d="M5794.92 15766.23c0,144.13 129.41,279.96 271.77,279.96 87.75,0 127.4,12.24 127.4,-25.45l0 -2494.18c0,-102.13 -14.47,-194.63 -61.7,-252.26 -105.68,-128.93 -199.73,-112.54 -337.47,-112.54l0 2604.47z"/>
   <path class="fil0" d="M919.98 13017.54c1.05,46.84 24.44,93.37 47.45,130.76 90.91,147.74 124.65,84.82 141.07,164.5 4.73,22.94 0.99,14.81 11.26,39.66 32.9,79.65 81.79,104.17 137.6,134.02 54.03,28.89 53.25,121.75 123.97,156.12 42.34,20.58 33.44,-3.01 48.77,36.12 19.56,49.9 27.39,136.28 143.84,136.28 70.24,132.61 80.35,51.12 132.6,130.53 54.8,83.3 88.02,60.82 138.01,125.14 55.15,70.96 64.44,29.61 103.62,91.61 51.94,82.19 82.22,46.2 121.05,74.21 0.87,0.62 53.21,73.76 56.76,79.04 19.45,-9.32 91.11,-14.14 119.28,-16.87 87.86,-8.53 54.07,-14.98 172.1,82.13 65.43,53.83 70.13,45.03 167.24,45.03 67.34,0 142.01,-11.55 199.11,-30.16 34.43,-11.23 39.15,-7.65 47.18,-37.71 -58.34,0 -327.09,-24.1 -357.84,-41.28 -39.4,-22.02 -150.21,-130.31 -181.43,-131.34l-72.22 2.95c30.16,-44.98 57.56,-29.01 67.94,-67.87 -30.56,0 -173.04,12.76 -180.09,-9.56 -4.14,-13.07 26.92,-28.15 46.69,-38.8 25.5,-13.74 44.76,-21.2 73.95,-27.99 -35.04,-47.78 -103.54,10.32 -220.81,-16.97 39.25,-58.55 82.98,-47.44 110.41,-84.84l-201.52 -23.13c33.66,-16.05 69.59,-27.77 108.09,-27.77l0 -16.96c-194.61,0 -139.58,-17.29 -237.8,-25.45l0 -25.46c31.02,-7.22 129.99,-31.28 144.38,-50.9 -91.43,0 -229.71,2.85 -288.76,-25.45 9.11,-34.08 29.59,-38.66 60.44,-49.91 26.3,-9.59 63.35,-24.02 92.43,-26.44l-233.26 -46.95c-41.04,-7.2 -41.89,-13.8 -72.48,-20.92 3.11,-37.35 13.45,-37.8 71.38,-72.92 26.49,-16.07 76.59,-38.78 106.97,-45.85 -42.11,-57.41 -383.16,-33.67 -433.14,-101.8 9.6,-35.93 30.08,-38.25 87.65,-65.15 26.45,-12.36 85.51,-34.11 116.18,-36.66l0 -16.96c-62.55,-5.2 -165.03,-33.66 -219.77,-51.95 -66.35,-22.16 -143.2,-46.76 -179.4,-100.76 110.13,0 411.65,27.51 551.98,34 294.81,13.64 769.64,188.36 1043.36,332.13 40.64,21.34 83.61,44.88 127.29,67.97l130.58 73.17c81.84,51.55 132.9,72.29 194.38,145.18 104.85,124.3 322.99,382.55 -9.28,382.55 -48.75,0 -64.48,-8.48 -118.91,-8.48 6.58,24.59 2.39,11.49 16.81,25.63 69.15,67.74 150.07,127.07 254.97,127.07 54.82,0 190.28,-204.38 70.78,-427.02 -181.09,-337.39 -518.34,-378.76 -748.18,-567.59 -126.72,-104.11 -546.78,-215.72 -734.7,-250.2 -119.81,-21.98 -171.64,-53.75 -277.73,-53.44 -46.57,0.13 -70.57,-1.56 -104.79,-6.19l-311.67 14.89c-67.46,0.93 -134.8,17.01 -203.79,17.01z"/>
   <path class="fil0" d="M1879.68 15367.5c93.07,-21.66 134.3,-59.39 288.76,-59.39 394.6,0 386.6,67.87 679.44,67.87 122.78,0 339.47,-46.86 412.71,-96.75 78.14,-53.24 196.58,-219.72 215.76,-301.98 -51.02,26.97 -74.55,50 -161.36,93.32 -56.73,28.32 -113.53,52.42 -172.6,82.11 -167.01,83.93 -245.43,79.08 -430.4,79.08 -87.61,0 -192.35,-77.32 -95.62,-188.83 6.76,-7.79 22.82,-25.97 28.21,-31.21l42.68 -25.24c131.45,-57.53 230.52,-103.42 372.44,-136.98 60.63,-14.34 120.13,-63.25 159.82,-103.35 264.07,-266.81 265.33,-288.71 265.33,-769.96 -14.51,20.85 -17.48,47.43 -21.99,71.36l-57.9 222.12c-33.23,88.2 -74.11,180.68 -124.99,248.42 -75.93,101.09 -91.14,106.1 -208.38,165.13l-257.91 115.66c-209.41,92.42 -360.6,102.83 -430.68,129.71 -55.42,21.26 -74.61,37.58 -119.45,67.32 -93.14,61.76 -167.96,135.21 -247.36,211.02l-49.4 52.45c-25.15,26.04 -78.22,74.88 -87.11,108.12z"/>
   <path class="fil0" d="M1582.43 15834.1l0 0zm0 0c-8.71,37.37 -53.8,102.53 -74.83,137.34l-159.29 265.06c-29.81,49.5 -53.42,88.67 -82.8,137.87 -89.15,149.27 -246.54,398.37 -320.05,537.14 26.97,-9.75 109.83,-140.7 129.73,-167.34 16.33,-21.86 27.77,-35.34 43.6,-58.25 56.76,-82.16 105.44,-154.31 161.31,-237.59 14.86,-22.15 23.29,-33.26 36.16,-57.2l134.92 -179.13c51.93,-61.6 67.55,-69.84 117.71,-119.95l75.59 -77.2c11.5,-9.82 13.7,-10.61 23.35,-19.1l286.95 -264.79c99.09,-80.02 264.75,-172.86 382.33,-220.43 56.42,-22.82 238.59,-113.31 289.95,-117.58l0 -16.97c-128.23,-29.84 -346.3,91.99 -457.43,136.93 -122.44,49.52 -160.59,91.45 -254.82,161.16 -40.76,30.15 -71.72,60.64 -109.52,94.2l-172.91 149.65c-1.28,1.19 -3.13,2.9 -4.41,4.08l-45.54 39.35c40.81,-174.99 46.23,-173.24 200.19,-266.63 128.83,-78.14 312.41,-211.2 452.93,-260.18 36.06,-12.57 30.75,-1.71 51.79,-33.11 -188.02,15.63 -508.04,130.81 -658.62,258.33 -15.44,13.08 -23.14,20.31 -37.8,30.12 6.08,-22.75 30.58,-49.98 45.83,-73 19.53,-29.48 33.17,-45.12 52.74,-74.57 51.44,-77.39 289.25,-397.6 300.6,-446.29l-147.96 157.61c-95.57,123.44 -234.93,270.13 -349.49,422.9 -90.12,120.17 -110.89,165.61 -187.07,279.74l-125.82 188.21c-11.88,18.33 -17.92,31.05 -29.19,47.19l-157.67 224.27c-22.96,30.6 -54.62,61.08 -72.91,88.36 25.17,-6.71 28.41,-12.53 43.99,-32.42l263.89 -321.76c42.4,-44.48 137.06,-168.52 200.29,-215.63l154.28 -100.39z"/>
   <path class="fil0" d="M3595.25 14816.07l2.54 2.52c-0.17,-0.16 -3.38,-1.68 -2.54,-2.52zm178.36 -721.11c0,148.48 -2.87,300.26 -45.56,429.58 -23.7,71.81 -72.15,223.11 -124.3,283.04l42.18 -560.19c1.25,-41.8 7.8,-42.68 9.25,-84.48 6.81,-196.6 -188.38,-444.31 -218.66,-457.45 -0.08,-0.04 -16.29,-16.33 -11.25,6.49l17.13 43.31c27.14,64.73 43.66,134.57 55.81,207.58 66.91,402.26 3.62,777.82 3.62,1158.64 0,19.43 2.88,9.86 8.49,33.93 35.24,-23.57 52.02,-64.81 70.4,-107.84 19.6,-45.88 34.52,-77.6 53.37,-124.85l203.91 -508.93c94.48,-245.63 30.03,-535.78 60.28,-618.08 96.53,-262.61 248.14,-349.46 299.97,-447.31 -33.59,2.79 -69.92,32.32 -95.15,49.18l-123.68 97.03c-136.69,121.42 -239.9,249.92 -209.4,451.23 7.15,47.17 3.59,99.95 3.59,149.12z"/>
   <path class="fil0" d="M3238.55 13560.49c26.97,-19.73 13.28,-21.33 37.53,-106.73 89.16,-313.91 392.89,-751.2 771.33,-438.25 25.62,21.18 48.16,34.94 65.91,61.42l161.37 -42.42c-12.11,-45.3 -216.19,-226.69 -286.14,-257.13 -76.11,-33.11 -124.66,-48.65 -214.72,-40.25 -155.11,14.47 -333.49,158.31 -404.38,275.43 -114.09,188.48 -130.9,323.77 -130.9,547.93z"/>
   <path class="fil0" d="M2244.88 14875.45l250.02 -327.14c21.81,-26.86 27.2,-18.1 30.25,-54.62 -77.21,40.8 -462.26,415 -567.76,501.8 -84.99,69.94 -72.8,16.46 -86.2,66.6 35.52,-2.95 20.06,-6.32 56.18,-20.23 22.78,-8.78 34.31,-10.24 59.13,-17.29l367.73 -107.76c239.99,-76.67 352.11,-85.2 572.8,-208.31 128.01,-71.41 169.68,-95.41 275.5,-199.89 55.28,-54.58 89.7,-113.34 125.16,-188.87 18.44,-39.29 29.68,-65.81 43.85,-108.9 13.8,-41.97 26.33,-90.68 2.9,-124.36 -26.11,111.92 -117.42,264.81 -199.24,335.44l-95.5 82.76c-164.23,122.16 -456.53,243.74 -646.9,312.46 -36.57,13.21 -150.23,55.18 -187.92,58.31z"/>
   <path class="fil0" d="M1582.43 12847.87l0 0zm0 0c47.34,0 192.05,29.53 239.5,40.73 219.62,51.84 443.85,90.99 631.93,217.12l284.23 242.06c8.13,6.82 14.72,12.48 23.43,19.01 121.38,90.94 235.59,168.25 400.59,168.25l0 -16.97c-128.55,-29.91 -300.7,-168.74 -384.3,-252.38 -43.92,-43.94 -116.49,-117.87 -169.26,-153.31 -82.91,-55.68 -212.87,-128.17 -311.72,-163.7 -322.92,-116.07 -418.22,-144.27 -764.05,-203.92 -30.84,-5.31 -111.38,-15.66 -145.69,-15.66 3.7,44.38 40.88,78.18 69.2,109.03l43.22 41.67c19.47,18.44 30.41,25.82 50.76,42.61 29.29,24.17 74.08,48.57 113.34,64.95 52.46,21.87 80.68,33.43 139.64,47.15 -19.51,-29.09 -126.79,-110.06 -166.15,-139.44 -22.35,-16.68 -40.49,-26.04 -54.67,-47.2z"/>
   <path class="fil0" d="M4002.91 13161.76c25.7,12.32 323.74,92.59 356.71,93.32 12.1,-145.28 492.37,-109.35 593.77,-101.07 46.08,3.76 94.41,16.24 145.11,16.24 -8.71,-7.57 -2.53,-4.58 -19.78,-14.18l-94.12 -33.24c-238.62,-67.6 -238.35,-41.55 -432.08,-69.15 -96.43,-13.74 -505.11,47.42 -549.61,108.08z"/>
   <path class="fil0" d="M2695 13933.77c-173.04,0 -217.6,-33.93 -305.74,-33.93 33.81,29.35 492.59,135.02 492.59,50.9 0,-116.02 -1197.57,-666.68 -1239.97,-670.21 23.51,32.05 366.07,188.79 430.35,223.36l425.84 236.36c11.36,6.83 317.38,193.52 196.93,193.52z"/>
   <path class="fil0" d="M3331.97 13509.59c62.16,-5.17 90.46,-35.59 186.12,0.73 35.97,13.66 32.08,22.89 60.18,41.69 -2.54,-30.47 -10.5,-40.36 -16.05,-68.81 -44.87,-230.01 87.8,-341.27 100.98,-397.79 -42.63,28.51 -67.11,46.75 -101.01,85.74 -63.75,73.31 -104.83,112.23 -161.94,211.52 -24.68,42.91 -44.96,82.9 -68.28,126.92z"/>
   <path class="fil0" d="M3773.61 13068.44c0,188.59 161.36,120.66 161.36,25.45 0,-46.93 -31.36,-97.94 -71.25,-106.95 -42.08,-9.52 -90.11,37.83 -90.11,81.5z"/>
  </g>
 </g>
</svg>
