<?xml version="1.0" encoding="UTF-8"?>
<!DOCTYPE svg PUBLIC "-//W3C//DTD SVG 1.1//EN" "http://www.w3.org/Graphics/SVG/1.1/DTD/svg11.dtd">
<!-- Creator: CorelDRAW 2018 (64-Bit) -->
<svg xmlns="http://www.w3.org/2000/svg" xml:space="preserve" width="210mm" height="297mm" version="1.1" style="shape-rendering:geometricPrecision; text-rendering:geometricPrecision; image-rendering:optimizeQuality; fill-rule:evenodd; clip-rule:evenodd"
viewBox="0 0 21000 29700"
 xmlns:xlink="http://www.w3.org/1999/xlink">
 <defs>
  <style type="text/css">
   <![CDATA[
    .str0 {stroke:#FEFEFE;stroke-width:20;stroke-miterlimit:22.9256}
    .fil0 {fill:#FEFEFE}
   ]]>
  </style>
 </defs>
 <g id="Слой_x0020_1">
  <metadata id="CorelCorpID_0Corel-Layer"/>
  <path class="fil0 str0" d="M11942.6 12456.03l494.19 133.2c0,0 29.07,-273.8 1063.96,-122.1 0,0 -770.36,-333 -1558.15,-11.1zm-224.05 -240.01c59.6,0 107.92,61.5 107.92,137.37 0,75.86 -48.32,137.36 -107.92,137.36 -59.6,0 -107.92,-61.5 -107.92,-137.36 0,-75.87 48.32,-137.37 107.92,-137.37zm-1277.43 1659.05c0,0 901.17,155.4 93.03,-643.81 0,0 -1087.22,-740.01 -2127.92,-806.61l-761.64 -48.1c0,0 52.33,148 595.94,240.51 0,0 -601.75,170.19 -101.75,233.1 500,62.9 427.33,66.6 427.33,66.6 0,0 -526.16,188.7 -75.58,229.4l261.63 33.3c0,0 -514.54,140.6 -14.54,170.2l203.49 0c0,0 -479.66,92.5 0,148l130.82 0c0,0 -380.82,77.71 -4.37,92.51l136.63 1.85c0,0 -347.38,160.95 7.27,135.05l161.34 -9.25c0,0 -427.33,168.36 7.27,135.06l90.11 -1.85c0,0 -265.99,131.34 15.99,94.34l261.63 205.36 495.64 48.1c0,0 -165.7,99.9 -517.45,62.9l-226.74 -185 -258.72 29.6c0,0 -63.96,-49.95 -68.32,-114.7 0,0 -188.95,-3.7 -194.76,-131.35 0,0 -114.83,-22.2 -168.61,-142.45 0,0 -164.25,-53.65 -193.32,-186.85 0,0 -97.38,18.5 -171.51,-136.9 0,0 -177.33,35.15 -209.31,-229.41 0,0 -129.36,20.36 -210.76,-229.4 0,0 -239.41,-62.44 -254.36,-307.1 0,0 -197.67,-88.8 -270.35,-362.6 0,0 918.61,-114.71 1168.61,14.79 0,0 866.28,140.61 1206.4,403.31 340.12,262.7 689.58,280.9 985.47,699.3 295.89,418.41 -5.81,680.81 -5.81,680.81 0,0 -98.84,99.9 -412.78,-188.71zm-1406.98 1380.1c0,0 -715.12,780.71 -909.89,1135.91 0,0 -543.61,836.21 -613.37,880.61 0,0 598.84,-751.11 726.74,-832.51 39.43,-25.09 139.63,-96.59 268.88,-186.08l-249.98 413.63 -712.21 1184.02c0,0 351.75,-466.21 529.07,-765.91 177.33,-299.7 857.57,-876.91 857.57,-876.91 212.21,-251.6 1020.35,-551.31 1020.35,-551.31 -238.37,-18.5 -537.79,159.1 -729.65,236.8 -191.87,77.7 -793.61,636.41 -793.61,636.41l85.79 -281.8c290.12,-200.68 721.38,-487.93 944.73,-548.85 0,0 -831.39,107.3 -1145.35,592l720.93 -1036.01zm2151.18 -1603.96c0,0 26.17,669.71 -142.44,821.41 0,0 -280.53,373.69 -466.58,407 -186.05,33.3 -581.4,218.3 -581.4,218.3 0,0 -319.77,266.4 75.58,362.6l409.89 -25.9c0,0 628,-260.42 691.86,-351.5 0,0 -174.41,410.7 -436.05,477.3 -261.63,66.6 -540.7,114.7 -787.79,48.1 0,0 -683.14,-173.9 -1063.96,22.2 0,0 497.1,-603.1 834.31,-643.8 337.21,-40.7 991.28,-381.11 991.28,-381.11 0,0 332.86,-133.19 475.3,-954.6zm-1380.82 740.02c-165.7,99.9 -819.78,788.1 -930.24,795.5 -110.47,7.4 1250,-355.2 1375.01,-436.6 125,-81.4 473.84,-199.8 654.07,-521.71 180.23,-321.9 133.72,-425.5 133.72,-425.5 0,0 -81.39,469.91 -703.49,773.31 -622.1,303.4 -965.12,377.4 -965.12,377.4l436.05 -562.4zm-1264.56 -1757.54c1921.21,881.22 2281.68,1179.69 1081.4,895.41 901.55,201.57 541.08,-96.9 -1081.4,-895.41zm2180.24 351.49c-43.6,-22.2 -267.44,-62.9 -671.51,-481.01 -404.07,-418.1 -1604.66,-654.94 -1877.92,-654.94 0,0 145.36,310.85 590.13,418.15l-363.38 -281.2c0,0 819.77,122.1 1191.87,314.5 0,0 215.11,107.3 406.98,307.11 191.86,199.8 581.4,436.6 723.83,377.39zm1488.39 -251.62c-61.05,103.6 -340.12,318.2 -447.68,695.6 0,0 49.42,521.71 -61.05,806.61 0,0 -345.93,917.61 -450.58,1073.01 -104.65,155.4 177.32,-1450.41 -142.45,-2064.62 0,0 267.44,240.51 319.77,584.61 0,0 -29.07,884.3 -87.21,1039.71 -58.14,155.4 203.49,-277.5 252.91,-629.01 49.42,-351.5 5.81,-814.01 5.81,-814.01 0,0 40.7,-373.7 610.48,-691.9zm113.37 -466.22l-220.93 62.9c0,0 -395.35,-436.6 -776.17,-140.6 -380.82,296.01 -479.65,832.51 -479.65,832.51 0,0 -69.77,-680.8 450.58,-1039.71 520.35,-358.9 848.85,122.1 1026.17,284.9zm-1337.2 684.5c0,0 216.57,-75.85 334.3,61.05 0,0 -140.99,-327.45 129.36,-654.9 0,0 -213.67,105.46 -463.66,593.85z"/>
 </g>
</svg>
